<svg xmlns="http://www.w3.org/2000/svg" viewBox="0 0 40 40"><path fill="#c2e8ff" d="M4.77,37.5c-1.251,0-2.27-1.018-2.27-2.269V4.769C2.5,3.518,3.519,2.5,4.77,2.5H35.23 c1.251,0,2.27,1.018,2.27,2.269v30.462c0,1.251-1.019,2.269-2.27,2.269H4.77z"/><path fill="#7496c4" d="M35.231,3C36.206,3,37,3.794,37,4.769v30.462C37,36.206,36.206,37,35.231,37H4.769 C3.794,37,3,36.206,3,35.231V4.769C3,3.794,3.794,3,4.769,3H35.231 M35.231,2H4.769C3.24,2,2,3.24,2,4.769v30.462 C2,36.76,3.24,38,4.769,38h30.462C36.76,38,38,36.76,38,35.231V4.769C38,3.24,36.76,2,35.231,2L35.231,2z"/></svg>